# xmcd
#
# Track frame offsets: 
#        150
#        13245
#        25291
#        38567
#        51041
#        71900
#        87845
#        102539
#        115909
#        128909
#        147145
#
# Disc length: 2158 seconds
#
# Revision: 0
# Processed by: cddbd v1.5.2PL0 Copyright (c) Steve Scherf et al.
# Submitted via: ExactAudioCopy v0.95b4
#
DISCID=97086c0b
DTITLE=Freddy Fender - The Best Of Freddy Fender
DYEAR=2004
DGENRE=Country
TTITLE0=Wasted Days And Wasted Nights
TTITLE1=Before The Next Teardrop Falls
TTITLE2=I Can't Stop Lovin' You
TTITLE3=Tell It Like It Is
TTITLE4=Six Days On The Road
TTITLE5=Whiskey River
TTITLE6=Cielito Lindo
TTITLE7=Rancho Grande
TTITLE8=Mexican Rose
TTITLE9=Secret Love
TTITLE10=The Rains Came
EXTD=
EXTT0=
EXTT1=
EXTT2=
EXTT3=
EXTT4=
EXTT5=
EXTT6=
EXTT7=
EXTT8=
EXTT9=
EXTT10=
PLAYORDER=
